<svg xmlns="http://www.w3.org/2000/svg" width="400" height="400" viewBox="0 0 400 400">
  <rect width="400" height="400" fill="#0b0e14" rx="16"/>
  <rect x="20" y="20" width="360" height="360" fill="#ffffff" rx="12"/>
  
  <!-- Outer Finder Patterns -->
  <!-- Top Left -->
  <rect x="50" y="50" width="80" height="80" fill="#0b0e14"/>
  <rect x="62" y="62" width="56" height="56" fill="#ffffff"/>
  <rect x="74" y="74" width="32" height="32" fill="#ff4655"/>
  
  <!-- Top Right -->
  <rect x="270" y="50" width="80" height="80" fill="#0b0e14"/>
  <rect x="282" y="62" width="56" height="56" fill="#ffffff"/>
  <rect x="294" y="74" width="32" height="32" fill="#ff4655"/>
  
  <!-- Bottom Left -->
  <rect x="50" y="270" width="80" height="80" fill="#0b0e14"/>
  <rect x="62" y="282" width="56" height="56" fill="#ffffff"/>
  <rect x="74" y="294" width="32" height="32" fill="#ff4655"/>

  <!-- Data Blocks -->
  <rect x="150" y="50" width="20" height="20" fill="#0b0e14"/>
  <rect x="190" y="50" width="20" height="20" fill="#0b0e14"/>
  <rect x="210" y="70" width="20" height="20" fill="#ff4655"/>
  <rect x="150" y="90" width="40" height="20" fill="#0b0e14"/>
  <rect x="210" y="110" width="20" height="20" fill="#0b0e14"/>
  
  <rect x="50" y="150" width="20" height="40" fill="#0b0e14"/>
  <rect x="90" y="170" width="20" height="20" fill="#ff4655"/>
  <rect x="130" y="150" width="40" height="40" fill="#0b0e14"/>
  <rect x="190" y="150" width="20" height="20" fill="#0b0e14"/>
  <rect x="230" y="170" width="40" height="20" fill="#0b0e14"/>
  <rect x="290" y="150" width="20" height="40" fill="#ff4655"/>
  <rect x="330" y="170" width="20" height="20" fill="#0b0e14"/>

  <rect x="150" y="210" width="20" height="20" fill="#ff4655"/>
  <rect x="190" y="210" width="40" height="20" fill="#0b0e14"/>
  <rect x="250" y="210" width="20" height="40" fill="#0b0e14"/>
  <rect x="290" y="210" width="40" height="20" fill="#0b0e14"/>

  <rect x="150" y="250" width="40" height="20" fill="#0b0e14"/>
  <rect x="210" y="270" width="20" height="40" fill="#ff4655"/>
  <rect x="250" y="270" width="40" height="20" fill="#0b0e14"/>
  <rect x="310" y="250" width="40" height="40" fill="#0b0e14"/>

  <rect x="150" y="310" width="20" height="40" fill="#0b0e14"/>
  <rect x="190" y="330" width="40" height="20" fill="#0b0e14"/>
  <rect x="250" y="310" width="20" height="20" fill="#ff4655"/>
  <rect x="290" y="330" width="40" height="20" fill="#0b0e14"/>

  <!-- Logo badge center -->
  <rect x="160" y="160" width="80" height="80" rx="12" fill="#0b0e14" stroke="#ff4655" stroke-width="4"/>
  <text x="200" y="207" font-family="'Orbitron', sans-serif" font-size="20" font-weight="bold" fill="#ff4655" text-anchor="middle">ARISE</text>
  <text x="200" y="225" font-family="sans-serif" font-size="10" font-weight="600" fill="#ffffff" text-anchor="middle">UPI PAY</text>
</svg>
